<svg width="8" height="8" viewBox="0 0 8 8" fill="none" xmlns="http://www.w3.org/2000/svg">
<path d="M2.95937 7.03346L5.76771 4.23346C5.80104 4.20013 5.8246 4.16402 5.83838 4.12513C5.85238 4.08624 5.85938 4.04457 5.85938 4.00013C5.85938 3.95569 5.85238 3.91402 5.83838 3.87513C5.8246 3.83624 5.80104 3.80013 5.76771 3.7668L2.95937 0.958464C2.8816 0.880686 2.78437 0.841797 2.66771 0.841797C2.55104 0.841797 2.45104 0.883464 2.36771 0.966797C2.28438 1.05013 2.24271 1.14735 2.24271 1.25846C2.24271 1.36957 2.28438 1.4668 2.36771 1.55013L4.81771 4.00013L2.36771 6.45013C2.28993 6.52791 2.25104 6.62369 2.25104 6.73746C2.25104 6.85146 2.29271 6.95013 2.37604 7.03346C2.45937 7.1168 2.5566 7.15846 2.66771 7.15846C2.77882 7.15846 2.87604 7.1168 2.95937 7.03346Z" fill="black"/>
</svg>
