<?xml version="1.0" encoding="utf-8"?><svg viewBox="0 0 32 32" xmlns="http://www.w3.org/2000/svg" xmlns:xlink="http://www.w3.org/1999/xlink"><style>:root>svg{display:none}:root>svg:target{display:block}</style><svg viewBox="0 0 32 32" id="add-a-photo" xmlns="http://www.w3.org/2000/svg"><path d="M25.332 10.666V8h-2.667V5.333h2.667V2.666h2.667v2.667h2.666V8H28v2.666h-2.667zM3.999 29.334c-.734 0-1.361-.26-1.883-.782a2.569 2.569 0 01-.784-1.884v-16c0-.734.261-1.361.784-1.883A2.565 2.565 0 013.999 8h4.2l2.466-2.667h8V8h-6.833l-2.433 2.666h-5.4v16h21.333v-12h2.667v12c0 .734-.261 1.362-.783 1.884a2.57 2.57 0 01-1.884.783H3.999zm10.666-4.666c1.667 0 3.084-.584 4.251-1.75 1.166-1.167 1.75-2.584 1.75-4.25 0-1.667-.584-3.084-1.75-4.251-1.167-1.166-2.584-1.75-4.25-1.75-1.667 0-3.084.584-4.251 1.75-1.167 1.167-1.75 2.584-1.75 4.25 0 1.667.583 3.084 1.75 4.251 1.167 1.166 2.584 1.75 4.25 1.75zm0-2.667c-.933 0-1.722-.322-2.366-.967-.645-.644-.967-1.433-.967-2.367 0-.933.322-1.722.967-2.366.644-.645 1.433-.967 2.366-.967.934 0 1.723.322 2.367.967.645.644.967 1.433.967 2.366 0 .934-.322 1.723-.967 2.367-.644.645-1.433.967-2.367.967z"/></svg><svg viewBox="0 0 20 20" id="angle-down" xmlns="http://www.w3.org/2000/svg"><path d="M17.48 6.75l-7 7.02a.725.725 0 01-.272.178.916.916 0 01-.312.052.916.916 0 01-.313-.053.725.725 0 01-.27-.176L2.292 6.75A.99.99 0 012 6.02c0-.29.104-.54.313-.75a1 1 0 01.729-.312 1 1 0 01.729.313l6.125 6.125L16.02 5.27a.976.976 0 01.718-.292c.285 0 .532.104.74.313a1 1 0 01.313.729 1 1 0 01-.313.729z"/></svg><svg viewBox="0 0 8 14" id="angle-right" xmlns="http://www.w3.org/2000/svg"><path d="M1 1l6 6-6 6" stroke="currentColor" stroke-width="2" stroke-linecap="round" stroke-linejoin="round"/></svg><svg viewBox="0 0 16 8" id="arrow-right" xmlns="http://www.w3.org/2000/svg"><path d="M15.354 4.354a.5.5 0 000-.708L12.172.464a.5.5 0 10-.708.708L14.293 4l-2.829 2.828a.5.5 0 10.708.708l3.182-3.182zM0 4.5h15v-1H0v1z"/></svg><svg viewBox="0 0 24 24" id="cart" xmlns="http://www.w3.org/2000/svg"><path fill-rule="evenodd" clip-rule="evenodd" d="M2.25 3A.75.75 0 013 2.25h1.382a1.75 1.75 0 011.565.967l.517 1.033h13.674a1.25 1.25 0 011.086 1.87l-3.285 5.748a1.75 1.75 0 01-1.52.882H8.917l-1.324 2.117a.25.25 0 00.212.383H19a.75.75 0 010 1.5H7.804c-1.374 0-2.212-1.512-1.484-2.678l1.352-2.162-2.363-6.615-.703-1.407a.25.25 0 00-.224-.138H3A.75.75 0 012.25 3zm4.814 2.75l1.965 5.5h7.39a.25.25 0 00.218-.126l3.07-5.374H7.065zM10 19.5a1.5 1.5 0 11-3 0 1.5 1.5 0 013 0zm7.5 1.5a1.5 1.5 0 100-3 1.5 1.5 0 000 3z"/></svg><svg viewBox="0 0 24 24" id="close-bold" xmlns="http://www.w3.org/2000/svg"><path fill-rule="evenodd" clip-rule="evenodd" d="M12 13.414l-3.293 3.293-1.414-1.414L10.586 12 7.293 8.707l1.414-1.414L12 10.586l3.293-3.293 1.414 1.414L13.414 12l3.293 3.293-1.414 1.414L12 13.414z"/></svg><svg viewBox="0 0 24 24" id="compare" xmlns="http://www.w3.org/2000/svg"><path fill-rule="evenodd" clip-rule="evenodd" d="M5.75 3.5A2.25 2.25 0 003.5 5.75v12.664a2.25 2.25 0 002.25 2.25h12.666a2.251 2.251 0 002.251-2.25V5.75a2.25 2.25 0 00-2.25-2.25H5.75zM2 5.75A3.75 3.75 0 015.75 2h12.667a3.75 3.75 0 013.75 3.75v12.664a3.752 3.752 0 01-3.751 3.75H5.75A3.75 3.75 0 012 18.414V5.75zm10.083 1.583a.75.75 0 01.75.75v7.998a.75.75 0 01-1.5 0V8.083a.75.75 0 01.75-.75zm4 2.999a.75.75 0 01.75.75v4.999a.75.75 0 01-1.5 0v-4.999a.75.75 0 01.75-.75zm-8 2.333a.75.75 0 01.75.75v2.666a.75.75 0 01-1.5 0v-2.666a.75.75 0 01.75-.75z"/></svg><svg viewBox="0 0 20 20" id="document" xmlns="http://www.w3.org/2000/svg"><path fill-rule="evenodd" clip-rule="evenodd" d="M4.088 2.088L4 2.175v16.221l.088.088.087.087h11.65l.087-.087.088-.088V6.447l-2.223-2.223L11.553 2H4.175l-.087.088zm7.055 2.539v2.055l.087.087.088.088H15.43V18H4.57V2.571h6.572v2.056zm2.232.016l1.643 1.643h-3.304V4.643c0-.904.004-1.643.01-1.643.004 0 .748.74 1.651 1.643zM6.588 8.802A.288.288 0 006.5 9c0 .07.032.143.088.198l.087.088h6.65l.087-.088A.288.288 0 0013.5 9a.288.288 0 00-.088-.198l-.087-.088h-6.65l-.087.088zm0 1.714a.288.288 0 00-.088.198c0 .07.032.143.088.198l.087.088h6.65l.087-.088a.288.288 0 00.088-.198.288.288 0 00-.088-.198l-.087-.087h-6.65l-.087.087zm0 1.714a.288.288 0 00-.088.199c0 .07.032.142.088.198l.087.087h6.65l.087-.087a.288.288 0 00.088-.198.288.288 0 00-.088-.199l-.087-.087h-6.65l-.087.087zm0 1.715a.288.288 0 00-.088.198c0 .07.032.143.088.198l.087.088h6.65l.087-.088a.288.288 0 00.088-.198.288.288 0 00-.088-.198l-.087-.088h-6.65l-.087.088zm0 1.714a.288.288 0 00-.088.198c0 .07.032.143.088.198l.087.088h6.65l.087-.088a.288.288 0 00.088-.198.288.288 0 00-.088-.198l-.087-.088h-6.65l-.087.088z"/></svg><svg viewBox="0 0 24 24" id="favorite" xmlns="http://www.w3.org/2000/svg"><path fill-rule="evenodd" clip-rule="evenodd" d="M2 9.12C2 5.82 4.408 3 7.55 3c1.7 0 3.194.836 4.2 2.118C12.756 3.836 14.25 3 15.95 3c3.142 0 5.55 2.822 5.55 6.12 0 1.325-.501 2.601-1.225 3.758-.725 1.16-1.702 2.245-2.723 3.205C15.509 18 13.209 19.49 12.14 20.14a.75.75 0 01-.78 0c-1.069-.652-3.37-2.14-5.411-4.059-1.022-.96-1.999-2.044-2.724-3.204C2.5 11.721 2 10.445 2 9.12zM7.55 4.5C5.39 4.5 3.5 6.486 3.5 9.12c0 .948.361 1.947.997 2.963.633 1.013 1.512 1.999 2.478 2.906 1.716 1.61 3.642 2.916 4.775 3.629 1.133-.713 3.06-2.018 4.775-3.629.966-.907 1.845-1.893 2.478-2.906.636-1.016.997-2.015.997-2.964C20 6.488 18.11 4.5 15.95 4.5c-1.48 0-2.816.915-3.528 2.352a.75.75 0 01-1.344 0C10.366 5.416 9.03 4.5 7.55 4.5z"/></svg><svg viewBox="0 0 20 20" id="filter" xmlns="http://www.w3.org/2000/svg"><g clip-path="url(#jclip0_0_17306)"><path d="M4.274 3.48H.588a.588.588 0 010-1.176h3.686a.588.588 0 010 1.176z"/><path d="M6.38 5.586a2.697 2.697 0 01-2.694-2.694A2.697 2.697 0 016.38.197a2.697 2.697 0 012.694 2.695A2.697 2.697 0 016.38 5.586zm0-4.212a1.52 1.52 0 00-1.518 1.518c0 .837.68 1.518 1.518 1.518a1.52 1.52 0 001.518-1.518A1.52 1.52 0 006.38 1.374zM19.411 3.48H10.62a.588.588 0 010-1.176h8.792a.588.588 0 010 1.176zM14.276 12.695a2.697 2.697 0 01-2.694-2.694 2.697 2.697 0 012.694-2.694A2.697 2.697 0 0116.971 10a2.697 2.697 0 01-2.695 2.694zm0-4.212a1.52 1.52 0 00-1.518 1.518c0 .837.681 1.518 1.518 1.518A1.52 1.52 0 0015.794 10a1.52 1.52 0 00-1.518-1.518zM10.038 10.589H.588a.588.588 0 010-1.177h9.45a.588.588 0 010 1.177z"/><path d="M19.413 10.589h-3.028a.588.588 0 010-1.177h3.028a.588.588 0 010 1.177zM5.722 19.803a2.697 2.697 0 01-2.695-2.695 2.697 2.697 0 012.695-2.694 2.697 2.697 0 012.694 2.694 2.697 2.697 0 01-2.694 2.695zm0-4.212a1.52 1.52 0 00-1.518 1.517c0 .837.68 1.518 1.518 1.518a1.52 1.52 0 001.518-1.518 1.52 1.52 0 00-1.518-1.517zM19.413 17.696h-9.45a.588.588 0 010-1.177h9.45a.588.588 0 010 1.177z"/><path d="M3.616 17.696H.588a.588.588 0 010-1.177h3.028a.588.588 0 010 1.177z"/></g><defs><clipPath id="jclip0_0_17306"><path d="M0 0h20v20H0z"/></clipPath></defs></svg><svg viewBox="0 0 30 22" id="grid" xmlns="http://www.w3.org/2000/svg"><rect width="14" height="10" rx="1"/><rect y="12" width="14" height="10" rx="1"/><rect x="16" width="14" height="10" rx="1"/><rect x="16" y="12" width="14" height="10" rx="1"/></svg><svg viewBox="0 0 29 22" id="list" xmlns="http://www.w3.org/2000/svg"><path d="M9 2h18M2 2h2M9 11h18M2 11h2M9 20h18M2 20h2" stroke="currentColor" stroke-width="4" stroke-linecap="round"/></svg><svg viewBox="0 0 19 19" id="search" xmlns="http://www.w3.org/2000/svg"><g clip-path="url(#mclip0_0_1632)"><path d="M13.657 13.335L18.321 18m-2.665-9.494A6.828 6.828 0 112 8.506a6.828 6.828 0 0113.656 0z" stroke="currentColor" stroke-width="1.5" stroke-miterlimit="10" stroke-linecap="round" stroke-linejoin="round"/></g><defs><clipPath id="mclip0_0_1632"><path d="M0 0h19v19H0z"/></clipPath></defs></svg><svg viewBox="0 0 24 24" id="share" xmlns="http://www.w3.org/2000/svg"><path fill-rule="evenodd" clip-rule="evenodd" d="M16.443 3.05c-.604.113-1.109.385-1.569.843-.356.357-.6.743-.733 1.162-.214.674-.213 1.093.005 1.99.016.065-.3.271-2.418 1.583-1.34.83-2.448 1.514-2.464 1.52-.015.006-.154-.095-.31-.225a3.44 3.44 0 00-1.215-.637c-.384-.102-1.073-.109-1.44-.015-.91.236-1.691.88-2.052 1.697-.19.427-.247.716-.247 1.237 0 .52.058.81.247 1.237.353.8 1.123 1.447 2 1.681a3.383 3.383 0 001.492.001c.403-.107.885-.36 1.216-.637.155-.13.294-.231.31-.225.015.006 1.124.69 2.463 1.52 2.118 1.312 2.434 1.518 2.418 1.583-.218.9-.219 1.344-.001 1.998.146.44.356.773.715 1.137.487.493 1.014.767 1.68.876 1.506.244 2.984-.74 3.377-2.247.166-.634.078-1.447-.22-2.05a2.992 2.992 0 00-2.733-1.681 2.91 2.91 0 00-2.019.793l-.193.175-1.33-.826a2163.143 2163.143 0 00-3.605-2.235 1.6 1.6 0 01.06-.233 3.118 3.118 0 000-1.734 1.6 1.6 0 01-.06-.233c.004-.004.518-.322 1.14-.707l2.464-1.527 1.331-.826.224.2a3.02 3.02 0 003.337.47 3.067 3.067 0 001.605-1.995c.106-.436.105-1.032 0-1.439-.404-1.545-1.921-2.52-3.475-2.23zm1.063 1.12c.988.29 1.578 1.287 1.346 2.272-.082.347-.25.645-.517.911a1.83 1.83 0 01-1.46.56 1.83 1.83 0 01-1.243-.568 1.915 1.915 0 01.084-2.75c.204-.183.446-.318.745-.415.257-.083.78-.088 1.045-.01zm-9.88 6.23c.547.197.986.641 1.179 1.194.116.332.115.891 0 1.223-.194.55-.636.999-1.176 1.191-.3.107-.79.13-1.095.05a1.894 1.894 0 01-1.44-1.85c0-.869.545-1.594 1.386-1.844.293-.088.85-.07 1.145.036zm9.797 6.14c.697.164 1.265.73 1.428 1.424a1.919 1.919 0 01-1.345 2.276c-.255.075-.759.075-1.012 0a1.94 1.94 0 01-1.342-1.342c-.073-.248-.075-.715-.003-.99a1.955 1.955 0 011.528-1.398 2.25 2.25 0 01.746.03z"/></svg><svg viewBox="0 0 24 24" id="star" xmlns="http://www.w3.org/2000/svg"><path d="M12 17.3l-3.7 2.825a.87.87 0 01-.6.212 1.047 1.047 0 01-.576-.187 1.147 1.147 0 01-.387-.475.833.833 0 01-.013-.65L8.15 14.4l-3.625-2.575a.845.845 0 01-.375-.525 1.04 1.04 0 01.025-.6 1.16 1.16 0 01.35-.488.897.897 0 01.6-.212H9.6l1.45-4.8a1.09 1.09 0 01.388-.538.95.95 0 01.562-.187c.2 0 .388.062.562.187.176.125.305.305.388.538L14.4 10h4.475c.234 0 .434.07.6.212.167.142.284.305.35.488.067.183.075.383.025.6a.845.845 0 01-.375.525L15.85 14.4l1.425 4.625c.084.233.08.45-.012.65s-.221.358-.388.475a1.047 1.047 0 01-.575.187.87.87 0 01-.6-.212L12 17.3z"/></svg><svg viewBox="0 0 24 24" id="star-unfilled" xmlns="http://www.w3.org/2000/svg"><path d="M12.303 16.903l-.304-.232-.303.232-3.7 2.825-.007.005-.006.005a.372.372 0 01-.264.1h-.001a.55.55 0 01-.307-.098.649.649 0 01-.219-.273h0c-.03-.067-.042-.147.003-.274l.004-.01.003-.01 1.425-4.626.107-.345-.295-.21-3.625-2.575-.006-.004-.006-.004a.348.348 0 01-.165-.221.543.543 0 01.007-.317.661.661 0 01.204-.278.399.399 0 01.276-.093H9.971l.107-.355 1.446-4.787a.585.585 0 01.204-.29l-.29-.406.29.407a.45.45 0 01.271-.094.45.45 0 01.272.094c.078.056.15.143.204.289l1.446 4.787.107.355h4.846c.124 0 .207.034.277.093.108.093.17.186.203.278.03.08.04.18.008.317a.347.347 0 01-.165.221l-.006.004-.006.005-3.625 2.575-.295.209.106.345 1.426 4.625.003.01.003.011c.046.127.035.208.005.274a.655.655 0 01-.22.274.55.55 0 01-.307.096h-.002a.372.372 0 01-.263-.099l-.007-.005-.006-.005-3.7-2.825z" stroke="currentColor"/></svg><svg viewBox="0 0 24 24" id="user" xmlns="http://www.w3.org/2000/svg"><path d="M19 21.375h-1.75v-1.75A2.625 2.625 0 0014.625 17h-5.25a2.625 2.625 0 00-2.625 2.625v1.75H5v-1.75a4.375 4.375 0 014.375-4.375h5.25A4.375 4.375 0 0119 19.625v1.75zM12 13.5a5.25 5.25 0 110-10.502A5.25 5.25 0 0112 13.5zm0-1.75a3.5 3.5 0 100-7 3.5 3.5 0 000 7z"/></svg><svg viewBox="0 0 20 20" id="warn" xmlns="http://www.w3.org/2000/svg"><path d="M9 15h2V9H9v6zm1-8a.968.968 0 00.713-.288A.967.967 0 0011 6a.97.97 0 00-.287-.713A.97.97 0 0010 5a.967.967 0 00-.712.287A.968.968 0 009 6c0 .283.096.52.288.712A.965.965 0 0010 7zm0 13a9.733 9.733 0 01-3.9-.788 10.092 10.092 0 01-3.175-2.137c-.9-.9-1.612-1.958-2.137-3.175A9.732 9.732 0 010 10c0-1.383.263-2.683.788-3.9a10.092 10.092 0 012.137-3.175c.9-.9 1.958-1.613 3.175-2.138A9.743 9.743 0 0110 0c1.383 0 2.683.262 3.9.787a10.105 10.105 0 013.175 2.138c.9.9 1.612 1.958 2.137 3.175A9.733 9.733 0 0120 10a9.733 9.733 0 01-.788 3.9 10.092 10.092 0 01-2.137 3.175c-.9.9-1.958 1.612-3.175 2.137A9.733 9.733 0 0110 20zm0-2c2.233 0 4.125-.775 5.675-2.325C17.225 14.125 18 12.233 18 10c0-2.233-.775-4.125-2.325-5.675C14.125 2.775 12.233 2 10 2c-2.233 0-4.125.775-5.675 2.325C2.775 5.875 2 7.767 2 10c0 2.233.775 4.125 2.325 5.675C5.875 17.225 7.767 18 10 18z"/></svg></svg>